#!OML:ASF I:\Actors\actors\Patient Classification 2\Patient 1\Session 1\actor1.ASF
:FULLY-SPECIFIED
:DEGREES
643
root -0.605442 18.5542 4.79805 -7.23811 0.00331717 -3.52141
lowerback 20.5165 0.106116 0.256779
upperback 4.26942 0.363706 2.14818
thorax -6.84428 0.185476 2.07743
lowerneck 2.99317 -5.07848 -6.51551
upperneck 45.0078 -7.23755 0.52052
head 15.9678 -4.12101 0.580915
rclavicle -1.84373e-014 1.03368e-014
rhumerus -61.3099 4.80148 -75.6752
rradius 116.635
rwrist 0.82917
rhand 16.1365 -52.8738
rfingers 7.12502
rthumb 40.9203 -77.8154
lclavicle -1.84373e-014 1.03368e-014
lhumerus -58.4578 -11.1731 87.228
lradius 110.024
lwrist 7.56227
lhand -7.82449 -23.5994
lfingers 7.12502
lthumb 18.0777 5.58049
rfemur 13.7665 8.34706 18.8846
rtibia -5.96354e-014
rfoot -19.1421 -17.2065
rtoes -12.1233
lfemur -1.89409 -1.84404 -10.7253
ltibia 26.2149
lfoot -19.4146 8.35868
ltoes -56.2407
644
root -0.610071 18.5532 4.7852 -7.3071 0.0585795 -3.45378
lowerback 20.5948 0.107891 0.227191
upperback 4.29176 0.35835 2.12017
thorax -6.86123 0.183239 2.06582
lowerneck 3.17332 -5.41533 -6.80472
upperneck 44.975 -7.63616 0.289584
head 15.9405 -4.36561 0.48782
rclavicle 1.08835e-014 -8.15017e-015
rhumerus -61.3678 4.71511 -75.6616
rradius 116.6
rwrist 0.92684
rhand 16.2125 -53.0904
rfingers 7.12502
rthumb 40.9917 -78.0094
lclavicle 1.08835e-014 -8.15017e-015
lhumerus -58.4911 -11.152 87.2456
lradius 109.963
lwrist 7.47438
lhand -7.76654 -23.7186
lfingers 7.12502
lthumb 18.1335 5.45617
rfemur 13.8054 8.30294 18.8199
rtibia -1.74931e-014
rfoot -19.1232 -17.2055
rtoes -11.7861
lfemur -1.88666 -1.8722 -10.7899
ltibia 26.231
lfoot -19.363 8.33671
ltoes -56.2392
645
root -0.612726 18.5517 4.77417 -7.38287 0.0419766 -3.42701
lowerback 20.8777 0.127528 0.399848
upperback 4.16238 0.420426 2.02591
thorax -7.15195 0.210894 1.85162
lowerneck 3.62215 -5.73941 -7.01267
upperneck 44.9572 -8.0807 0.157081
head 15.8655 -4.60972 0.428977
rclavicle 4.14963e-015 -2.06736e-014
rhumerus -61.754 4.55287 -75.6613
rradius 116.636
rwrist 1.05805
rhand 16.1631 -52.9519
rfingers 7.12502
rthumb 40.9454 -77.8857
lclavicle 4.14963e-015 -2.06736e-014
lhumerus -58.7655 -11.3326 87.2434
lradius 109.936
lwrist 7.45359
lhand -7.69146 -23.7312
lfingers 7.12502
lthumb 18.2057 5.43678
rfemur 13.8484 8.32538 18.8043
rtibia -2.70347e-014
rfoot -19.0917 -17.2122
rtoes -11.5333
lfemur -1.84233 -1.84822 -10.8088
ltibia 26.2356
lfoot -19.319 8.34761
ltoes -56.2206
646
root -0.615281 18.5502 4.76369 -7.42712 -0.00607419 -3.45023
lowerback 20.9906 0.255253 0.837066
upperback 4.1658 0.659512 1.72646
thorax -7.20646 0.315122 1.21398
lowerneck 3.86539 -6.21327 -6.65556
upperneck 44.8923 -8.86132 0.226453
head 15.7963 -4.87973 0.316703
rclavicle -5.03174e-015 2.43511e-015
rhumerus -62.0675 3.65187 -75.8569
rradius 116.684
rwrist 1.29221
rhand 16.1768 -52.8482
rfingers 7.12502
rthumb 40.9582 -77.7779
lclavicle -5.03174e-015 2.43511e-015
lhumerus -58.7329 -12.2064 86.9752
lradius 109.933
lwrist 7.56145
lhand -7.63626 -23.6676
lfingers 7.12502
lthumb 18.2588 5.49543
rfemur 13.8536 8.37044 18.8472
rtibia -4.85035e-014
rfoot -19.0367 -17.2403
rtoes -11.6133
lfemur -1.82373 -1.79083 -10.763
ltibia 26.2386
lfoot -19.279 8.3499
ltoes -56.2422
647
root -0.618372 18.5498 4.75232 -7.42733 -0.000512634 -3.4031
lowerback 20.8501 0.260684 0.85071
upperback 4.28501 0.661254 1.68808
thorax -7.00173 0.315478 1.16375
lowerneck 3.9165 -6.43654 -6.82188
upperneck 44.7937 -9.2155 0.311178
head 15.7695 -5.04911 0.34338
rclavicle 5.35476e-015 1.19271e-015
rhumerus -61.9353 3.48535 -75.8779
rradius 116.671
rwrist 1.40061
rhand 15.9769 -52.6384
rfingers 7.12502
rthumb 40.7704 -77.6273
lclavicle 5.35476e-015 1.19271e-015
lhumerus -58.6782 -12.2552 86.9189
lradius 109.973
lwrist 7.52046
lhand -7.636 -23.6091
lfingers 7.12502
lthumb 18.2591 5.55388
rfemur 13.8161 8.37107 18.8039
rtibia -1.74931e-014
rfoot -18.9501 -17.2739
rtoes -11.9243
lfemur -1.87053 -1.75142 -10.7947
ltibia 26.2463
lfoot -19.2302 8.32035
ltoes -56.2775
648
root -0.621223 18.5502 4.73987 -7.4088 0.0228956 -3.37355
lowerback 20.4717 0.162387 0.588721
upperback 4.54395 0.481604 1.90127
thorax -6.52214 0.23369 1.58846
lowerneck 3.71277 -6.48269 -7.34663
upperneck 44.7102 -9.18697 0.207162
head 15.8021 -5.12902 0.382364
rclavicle -1.65488e-014 -5.06901e-015
rhumerus -61.3731 3.96571 -75.6591
rradius 116.604
rwrist 1.33669
rhand 15.8402 -52.3934
rfingers 7.12502
rthumb 40.642 -77.4225
lclavicle -1.65488e-014 -5.06901e-015
lhumerus -58.4304 -11.6138 87.0346
lradius 109.931
lwrist 7.41016
lhand -7.73963 -23.5826
lfingers 7.12502
lthumb 18.1593 5.58971
rfemur 13.7566 8.35151 18.7722
rtibia -4.21423e-014
rfoot -18.8508 -17.3125
rtoes -12.3387
lfemur -1.9416 -1.72039 -10.8064
ltibia 26.2449
lfoot -19.1986 8.26939
ltoes -56.298
